<?xml version="1.0" standalone="no"?>
<!DOCTYPE svg PUBLIC "-//W3C//DTD SVG 20010904//EN"
 "http://www.w3.org/TR/2001/REC-SVG-20010904/DTD/svg10.dtd">
<svg version="1.0" xmlns="http://www.w3.org/2000/svg"
 width="700.000000pt" height="700.000000pt" viewBox="0 0 700.000000 700.000000"
 preserveAspectRatio="xMidYMid meet">
<metadata>
Created by potrace 1.11, written by Peter Selinger 2001-2013
</metadata>
<g transform="translate(0.000000,700.000000) scale(0.100000,-0.100000)"
fill="#000000" stroke="none">
<path d="M3299 6774 c-129 -23 -204 -67 -231 -134 -11 -29 -14 -1188 -3 -1272
31 -234 127 -428 405 -813 162 -225 272 -384 330 -480 175 -286 330 -681 365
-925 3 -25 8 -52 10 -60 21 -84 22 -370 0 -484 -49 -264 -162 -407 -390 -494
-57 -22 -208 -40 -314 -37 -173 5 -254 22 -371 78 -237 112 -327 341 -297 745
24 307 146 709 338 1110 69 145 75 168 60 214 -23 66 -98 92 -162 56 -30 -17
-45 -39 -94 -141 -169 -353 -300 -725 -340 -967 -3 -19 -8 -42 -10 -50 -2 -8
-6 -37 -10 -65 -3 -27 -9 -81 -14 -120 -11 -91 -6 -314 8 -390 17 -92 18 -97
31 -145 27 -100 98 -227 169 -303 118 -126 327 -221 534 -244 90 -10 303 -10
377 0 260 35 467 167 597 380 42 69 94 201 107 272 2 11 9 49 16 85 16 82 20
318 8 430 -24 234 -73 426 -175 683 -129 324 -235 503 -588 993 -240 333 -304
452 -349 644 -13 55 -15 151 -13 600 2 575 2 573 54 601 33 18 252 18 286 0
52 -28 52 -22 55 -655 3 -644 2 -630 62 -661 70 -36 150 1 166 78 7 37 5 1293
-2 1323 -17 67 -87 118 -200 145 -72 17 -325 19 -415 3z"/>
<path d="M5665 1188 c-52 -71 -57 -98 -21 -98 30 0 146 103 146 130 0 20 -19
30 -56 30 -18 0 -35 -16 -69 -62z"/>
<path d="M1247 1014 c-120 -38 -192 -185 -141 -287 40 -79 91 -110 257 -153
155 -40 201 -70 208 -135 18 -160 -215 -213 -397 -89 -33 22 -62 40 -66 40 -5
0 -17 -9 -28 -20 -28 -28 -15 -53 50 -95 107 -69 254 -93 369 -59 107 31 178
135 164 242 -14 104 -81 154 -277 206 -53 14 -114 35 -137 46 -67 34 -86 110
-44 174 29 44 71 61 155 61 67 0 84 -4 153 -38 83 -40 99 -41 117 -7 9 17 7
24 -15 46 -14 14 -51 37 -82 51 -72 33 -211 41 -286 17z"/>
<path d="M2361 1004 c-12 -15 -21 -30 -21 -34 0 -5 -25 -60 -55 -125 -30 -64
-55 -118 -55 -120 0 -1 -18 -41 -39 -87 -122 -261 -171 -374 -171 -393 0 -43
48 -55 75 -18 7 10 28 52 46 93 18 41 38 81 45 89 10 12 52 14 211 13 109 0
207 -1 218 -1 15 -1 30 -24 64 -102 25 -55 52 -104 60 -108 25 -12 43 -8 57
14 14 21 5 47 -73 215 -83 177 -233 511 -233 516 0 4 -11 22 -26 41 -32 42
-73 45 -103 7z m65 -116 c4 -13 22 -56 42 -98 82 -179 123 -273 119 -276 -4
-4 -172 -7 -309 -5 l-57 1 14 28 c15 28 49 102 125 275 24 53 46 97 51 97 4 0
11 -10 15 -22z"/>
<path d="M3244 1017 c-10 -6 -22 -14 -25 -19 -3 -5 -5 -180 -5 -389 1 -365 2
-381 20 -395 24 -17 26 -17 50 1 18 13 19 32 19 335 0 258 2 319 12 308 11
-12 214 -270 415 -528 41 -52 79 -100 84 -106 22 -21 49 -25 67 -8 18 16 19
40 19 399 0 339 -2 384 -16 396 -23 19 -41 19 -58 0 -13 -15 -16 -64 -18 -327
l-3 -309 -125 160 c-68 88 -143 183 -165 211 -22 28 -52 66 -67 85 -152 197
-164 208 -204 186z"/>
<path d="M4310 1005 c-7 -8 -10 -25 -6 -40 7 -28 1 -26 146 -30 52 -1 102 -3
110 -4 13 -1 15 -45 15 -338 -1 -186 1 -346 3 -356 7 -30 40 -41 68 -22 l24
15 0 353 0 352 126 1 c112 0 128 2 140 19 18 24 18 30 -2 49 -23 23 -605 24
-624 1z"/>
<path d="M5359 1004 c-21 -26 -21 -752 -1 -776 14 -16 40 -18 287 -18 280 0
295 2 295 41 0 38 -23 42 -263 44 -128 1 -234 3 -237 3 -3 1 -5 64 -5 140 l1
137 200 1 c202 1 243 6 245 27 2 23 -3 42 -14 49 -7 4 -105 8 -218 8 -157 0
-208 3 -211 13 -3 10 -3 173 1 243 1 21 4 22 204 22 294 1 275 -1 287 22 8 14
8 26 0 40 -10 19 -21 20 -284 20 -241 0 -275 -2 -287 -16z"/>
</g>
</svg>
